<svg id="storage" xmlns="http://www.w3.org/2000/svg" viewBox="0 0 57.83 60.63" aria-hidden="true"><defs><style>.cls-1{fill:#fff;}</style></defs><g id="Group_395" data-name="Group 395"><g id="Group_389" data-name="Group 389"><path id="Path_350" data-name="Path 350" class="cls-1" d="M67.49,42.49h-2.8a.94.94,0,0,0,0,1.87h2.81a.94.94,0,1,0,0-1.87Z" transform="translate(-21.08 -19.68)"/><path id="Path_351" data-name="Path 351" class="cls-1" d="M52.1,33H64.69a.94.94,0,0,0,0-1.88H52.1a.94.94,0,0,0,0,1.88Z" transform="translate(-21.08 -19.68)"/><path id="Path_352" data-name="Path 352" class="cls-1" d="M52.1,36.76h6.3a.93.93,0,0,0,.93-.94,1,1,0,0,0-.93-.93H52.1a.94.94,0,0,0,0,1.87Z" transform="translate(-21.08 -19.68)"/><path id="Path_353" data-name="Path 353" class="cls-1" d="M67.49,27.29H64a.94.94,0,0,0,0,1.88h3.5a.94.94,0,0,0,0-1.88Z" transform="translate(-21.08 -19.68)"/><path id="Path_354" data-name="Path 354" class="cls-1" d="M67.49,34.89h-6.3a.94.94,0,1,0,0,1.87h6.31a.92.92,0,0,0,.94-.93.94.94,0,0,0-.93-.94Z" transform="translate(-21.08 -19.68)"/><path id="Path_355" data-name="Path 355" class="cls-1" d="M52.1,29.17h9.09a.94.94,0,0,0,0-1.88H52.1a.94.94,0,0,0,0,1.88Z" transform="translate(-21.08 -19.68)"/><path id="Path_356" data-name="Path 356" class="cls-1" d="M51.16,24.43a.94.94,0,0,0,.94.94H67.49a.94.94,0,0,0,0-1.87H52.1A.94.94,0,0,0,51.16,24.43Z" transform="translate(-21.08 -19.68)"/><path id="Path_357" data-name="Path 357" class="cls-1" d="M45.1,36.66H29.71a.94.94,0,0,0,0,1.87H45.1a.94.94,0,0,0,0-1.87Z" transform="translate(-21.08 -19.68)"/><path id="Path_358" data-name="Path 358" class="cls-1" d="M71.69,65.15a.94.94,0,0,0-.94.94v2.1a.94.94,0,1,0,1.87,0v-2.1A.94.94,0,0,0,71.69,65.15Z" transform="translate(-21.08 -19.68)"/><path id="Path_359" data-name="Path 359" class="cls-1" d="M38.84,39.76H29.75a.94.94,0,0,0,0,1.87h9.11a.94.94,0,0,0,0-1.87Z" transform="translate(-21.08 -19.68)"/><path id="Path_360" data-name="Path 360" class="cls-1" d="M61.89,38.69H52.1a.94.94,0,0,0,0,1.87h9.79a.92.92,0,0,0,.93-.94A.93.93,0,0,0,61.89,38.69Z" transform="translate(-21.08 -19.68)"/><path id="Path_361" data-name="Path 361" class="cls-1" d="M38.81,42.84h-9.1a.94.94,0,0,0,0,1.87h9.1a.94.94,0,0,0,0-1.87Z" transform="translate(-21.08 -19.68)"/><path id="Path_362" data-name="Path 362" class="cls-1" d="M74.72,61.75v-2a.93.93,0,0,0-.93-.93H72.62V57.7a3,3,0,0,0-3-3h-9.1a3,3,0,0,0-3,3v8.39a4,4,0,1,1-7.92,0V52.34H75.18a1,1,0,0,0,.94-.94v-28a.94.94,0,0,0-.94-.94H71.92V20.62a.94.94,0,0,0-.93-.94H52.8a5.16,5.16,0,0,0-4.2,2.19,5.16,5.16,0,0,0-4.2-2.19H26.22a.94.94,0,0,0-.94.94v1.86H22a.94.94,0,0,0-.94.94v28a1,1,0,0,0,.94.94h9.55V57a.94.94,0,0,0,.94.93,1,1,0,0,0,.59-.2L36,55.4l2.91,2.33a.9.9,0,0,0,.69.2.93.93,0,0,0,.83-.93V52.34h7.22V66.09a5.84,5.84,0,0,0,11.67,0V57.7a1.17,1.17,0,0,1,1.16-1.17h9.1a1.17,1.17,0,0,1,1.16,1.17v1.16H69.59a.94.94,0,0,0-.94.93v2a5.17,5.17,0,0,0-4.2,5v6.3a7.24,7.24,0,0,0,14.47,0v-6.3A5.17,5.17,0,0,0,74.72,61.75Zm-4.2-.09v-.93h2.33v.93ZM77,66.79v6.3a5.36,5.36,0,0,1-10.72,0V66.79a3.27,3.27,0,0,1,3.26-3.26h4.21a3.27,3.27,0,0,1,3.26,3.26ZM49.67,50.46a3.29,3.29,0,0,1,3.12-2.32H71a.94.94,0,0,0,.94-.94V24.35h2.32V50.46Zm20.38-4.2H52.8a5.18,5.18,0,0,0-3.26,1.18V24.81a3.27,3.27,0,0,1,3.26-3.26H70.05ZM38.57,48.13V55l-2-1.58a1,1,0,0,0-1.17,0l-2,1.58V48.13Zm-12.36,0h5.36v2.33H23V24.35h2.33V47.2a.94.94,0,0,0,.94.94Zm14.23,0h4a3.31,3.31,0,0,1,3.13,2.33H40.44Zm7.22-23.32V47.44a5.18,5.18,0,0,0-3.26-1.18H27.15V21.55H44.4a3.29,3.29,0,0,1,3.27,3.27Z" transform="translate(-21.08 -19.68)"/><path id="Path_363" data-name="Path 363" class="cls-1" d="M61.89,42.49H52.1a.94.94,0,0,0,0,1.87h9.8a.94.94,0,0,0,0-1.87Z" transform="translate(-21.08 -19.68)"/><path id="Path_364" data-name="Path 364" class="cls-1" d="M36,31.58h0a.82.82,0,0,0,.79,0l2.76-1.66a.78.78,0,0,0,.27-1.08.78.78,0,0,0-.27-.27L36.76,26.9a.79.79,0,0,0-1.08.27.87.87,0,0,0-.11.41v3.31A.79.79,0,0,0,36,31.58Z" transform="translate(-21.08 -19.68)"/><path id="Path_365" data-name="Path 365" class="cls-1" d="M37.41,35.37a6.13,6.13,0,1,0-6.13-6.13A6.14,6.14,0,0,0,37.41,35.37Zm-4.35-6.13a4.35,4.35,0,1,1,4.35,4.34A4.35,4.35,0,0,1,33.06,29.24Z" transform="translate(-21.08 -19.68)"/></g></g></svg>
