<svg id="storage" xmlns="http://www.w3.org/2000/svg" viewBox="0 0 44.83 62.36" aria-hidden="true"><defs><style>.cls-1{fill:#fff;}</style></defs><g id="Component_15_1" data-name="Component 15 1"><g id="Group_393" data-name="Group 393"><path id="Path_396" data-name="Path 396" class="cls-1" d="M40.26,44.13H36.37a1,1,0,0,0-1,1V49a1,1,0,0,0,1,1h3.89a1,1,0,0,0,1-1v-3.9A1,1,0,0,0,40.26,44.13Zm-1,3.9h-1.9v-1.9h1.9Z" transform="translate(-27.58 -18.82)"/><path id="Path_397" data-name="Path 397" class="cls-1" d="M63.63,59.71H49a1,1,0,0,0,0,2h14.6a1,1,0,0,0,0-2Z" transform="translate(-27.58 -18.82)"/><path id="Path_398" data-name="Path 398" class="cls-1" d="M63.63,51.92H49a1,1,0,0,0,0,2h14.6a1,1,0,1,0,0-2Z" transform="translate(-27.58 -18.82)"/><path id="Path_399" data-name="Path 399" class="cls-1" d="M40.26,59.71H36.37a1,1,0,0,0-1,1V64.6a1,1,0,0,0,1,1h3.89a1,1,0,0,0,1-1V60.71A1,1,0,0,0,40.26,59.71Zm-1,3.89h-1.9V61.7h1.9Z" transform="translate(-27.58 -18.82)"/><path id="Path_400" data-name="Path 400" class="cls-1" d="M40.26,51.92H36.37a1,1,0,0,0-1,1v3.9a1,1,0,0,0,1,1h3.89a1,1,0,0,0,1-1v-3.9A1,1,0,0,0,40.26,51.92Zm-1,3.9h-1.9v-1.9h1.9Z" transform="translate(-27.58 -18.82)"/><path id="Path_401" data-name="Path 401" class="cls-1" d="M50,22.72a3.92,3.92,0,1,0,3.92,3.92h0A3.92,3.92,0,0,0,50,22.72Zm0,5.84a1.93,1.93,0,1,1,1.92-1.92h0A1.92,1.92,0,0,1,50,28.56Z" transform="translate(-27.58 -18.82)"/><path id="Path_402" data-name="Path 402" class="cls-1" d="M40.26,67.5H36.37a1,1,0,0,0-1,1v3.9a1,1,0,0,0,1,1h3.89a1,1,0,0,0,1-1V68.5A1,1,0,0,0,40.26,67.5Zm-1,3.9h-1.9V69.5h1.9Z" transform="translate(-27.58 -18.82)"/><path id="Path_403" data-name="Path 403" class="cls-1" d="M63.63,44.13H49a1,1,0,0,0,0,2h14.6a1,1,0,0,0,0-2Z" transform="translate(-27.58 -18.82)"/><path id="Path_404" data-name="Path 404" class="cls-1" d="M44.16,38.34h2a1,1,0,0,0,0-2h-2a1,1,0,0,0,0,2Z" transform="translate(-27.58 -18.82)"/><path id="Path_405" data-name="Path 405" class="cls-1" d="M44.16,69.5h2a1,1,0,0,0,0-2h-2a1,1,0,0,0,0,2Z" transform="translate(-27.58 -18.82)"/><path id="Path_406" data-name="Path 406" class="cls-1" d="M49,38.34h14.6a1,1,0,0,0,0-2H49a1,1,0,0,0,0,2Z" transform="translate(-27.58 -18.82)"/><path id="Path_407" data-name="Path 407" class="cls-1" d="M55.84,67.5H49a1,1,0,0,0,0,2h6.81a1,1,0,0,0,0-2Z" transform="translate(-27.58 -18.82)"/><path id="Path_408" data-name="Path 408" class="cls-1" d="M35.37,41.24a1,1,0,0,0,1,1h3.9a1,1,0,0,0,1-1V37.35a1,1,0,0,0-1-1h-3.9a1,1,0,0,0-1,1Zm2-2.9h1.9v1.9h-1.9Z" transform="translate(-27.58 -18.82)"/><path id="Path_409" data-name="Path 409" class="cls-1" d="M44.16,65.6H55.84a1,1,0,1,0,0-2H44.16a1,1,0,0,0,0,2Z" transform="translate(-27.58 -18.82)"/><path id="Path_410" data-name="Path 410" class="cls-1" d="M71.42,25.64H57.75a7.81,7.81,0,0,0-15.5,0H28.58a1,1,0,0,0-1,1V80.18a1,1,0,0,0,1,1H71.42a1,1,0,0,0,1-1V26.64A1,1,0,0,0,71.42,25.64Zm-34.05,2h5.82a1,1,0,0,0,1-1,5.82,5.82,0,1,1,11.63,0h0a1,1,0,0,0,1,1h5.81v4.81H37.37Zm-1,6.81H63.63a1,1,0,0,0,1-1V31.53h1.9v36H59.74a1,1,0,0,0-1,1v6.79H33.48V31.53h1.9v1.92a1,1,0,0,0,1,1ZM65.11,69.5l-4.38,4.38V69.5Zm5.31,9.68H29.58V27.64h5.79v1.9h-2.9a1,1,0,0,0-1,1V76.29a1,1,0,0,0,1,1H59.73a1,1,0,0,0,.71-.29l7.79-7.79a1.13,1.13,0,0,0,.29-.7v-38a1,1,0,0,0-1-1h-2.9v-1.9h5.79Z" transform="translate(-27.58 -18.82)"/><path id="Path_411" data-name="Path 411" class="cls-1" d="M44.16,73.39H55.84a1,1,0,1,0,0-2H44.16a1,1,0,0,0,0,2Z" transform="translate(-27.58 -18.82)"/><path id="Path_412" data-name="Path 412" class="cls-1" d="M44.16,61.71h2a1,1,0,0,0,0-2h-2a1,1,0,0,0,0,2Z" transform="translate(-27.58 -18.82)"/><path id="Path_413" data-name="Path 413" class="cls-1" d="M44.16,42.24H55.84a1,1,0,0,0,0-2H44.16a1,1,0,0,0,0,2Z" transform="translate(-27.58 -18.82)"/><path id="Path_414" data-name="Path 414" class="cls-1" d="M44.16,50H55.84a1,1,0,0,0,0-2H44.16a1,1,0,0,0,0,2Z" transform="translate(-27.58 -18.82)"/><path id="Path_415" data-name="Path 415" class="cls-1" d="M44.16,46.13h2a1,1,0,0,0,0-2h-2a1,1,0,0,0,0,2Z" transform="translate(-27.58 -18.82)"/><path id="Path_416" data-name="Path 416" class="cls-1" d="M44.16,53.92h2a1,1,0,0,0,0-2h-2a1,1,0,0,0,0,2Z" transform="translate(-27.58 -18.82)"/><path id="Path_417" data-name="Path 417" class="cls-1" d="M44.16,57.81H55.84a1,1,0,0,0,0-2H44.16a1,1,0,0,0,0,2Z" transform="translate(-27.58 -18.82)"/></g></g></svg>
