<svg id="storage" xmlns="http://www.w3.org/2000/svg" viewBox="0 0 62.53 58.18" aria-hidden="true"><defs><style>.cls-1{fill:#fff;}</style></defs><g id="Component_13_1" data-name="Component 13 1"><g id="Group_391" data-name="Group 391"><path id="Path_377" data-name="Path 377" class="cls-1" d="M37.74,46.13a4.58,4.58,0,0,0,0,9.16h0a4.58,4.58,0,0,0,0-9.16Zm0,1.94a2.64,2.64,0,1,1-2.64,2.64A2.64,2.64,0,0,1,37.74,48.07Z" transform="translate(-18.73 -20.91)"/><path id="Path_378" data-name="Path 378" class="cls-1" d="M68.76,45.13H47.84a1,1,0,0,0-1,1v6.09a1,1,0,1,0,2,0V47.07h19V64.44h-19V62.25a1,1,0,0,0-2,0v3.16a1,1,0,0,0,1,1H68.76a1,1,0,0,0,1-1V46.09A1,1,0,0,0,68.76,45.13Z" transform="translate(-18.73 -20.91)"/><path id="Path_379" data-name="Path 379" class="cls-1" d="M72.36,41.08H27.64a1,1,0,0,0-1,1V69.46a1,1,0,0,0,1,1H72.36a1,1,0,0,0,1-1V42.05A1,1,0,0,0,72.36,41.08ZM45.92,60.85,51,59.77a6.38,6.38,0,0,0,5-6.18.94.94,0,0,0-.35-.74.91.91,0,0,0-.79-.21L31.08,57a1,1,0,0,0-.8,1V68.49H28.61V43H71.39V68.49H45.92Zm-13.7-2.12,21.69-3.94a4.4,4.4,0,0,1-3.3,3.08l-5.86,1.24a1,1,0,0,0-.77,1v8.43H32.22Z" transform="translate(-18.73 -20.91)"/><path id="Path_380" data-name="Path 380" class="cls-1" d="M66.84,49.46a1,1,0,0,0-1-1H50.72a1,1,0,0,0,0,1.95H65.87A1,1,0,0,0,66.84,49.46Z" transform="translate(-18.73 -20.91)"/><path id="Path_381" data-name="Path 381" class="cls-1" d="M50.72,63H65.87a1,1,0,1,0,0-1.94H50.72a1,1,0,0,0,0,1.94Z" transform="translate(-18.73 -20.91)"/><path id="Path_382" data-name="Path 382" class="cls-1" d="M80.3,71.38H76.22v-30a3.16,3.16,0,0,0-3.14-3.14H50.92V36.46h13.5a.92.92,0,0,0,.92-.92V32.78a6,6,0,1,0-1.84,0v1.84H50.92V32.78a6,6,0,1,0-1.84,0v1.84H36.5V32.78a6,6,0,1,0-1.85,0v2.76a.92.92,0,0,0,.92.92H49.08v1.73H26.92a3.15,3.15,0,0,0-3.14,3.14V71.38H19.7a1,1,0,0,0-1,1v2.88a3.88,3.88,0,0,0,3.86,3.86H77.41a3.88,3.88,0,0,0,3.86-3.86V72.35A1,1,0,0,0,80.3,71.38ZM32.24,29.31a4.12,4.12,0,0,1,3.33-6.55h0a4.12,4.12,0,0,1,3.33,6.55A5.29,5.29,0,0,0,32.24,29.31Zm5.22,1.24a4.07,4.07,0,0,1-1.85.45h-.07a4.15,4.15,0,0,1-1.86-.45A3.5,3.5,0,0,1,37.46,30.55Zm23.63-1.24a4.12,4.12,0,0,1,.9-5.76,4.17,4.17,0,0,1,2.43-.79h0a4.12,4.12,0,0,1,3.33,6.55A5.29,5.29,0,0,0,61.09,29.31Zm5.23,1.24a4.19,4.19,0,0,1-3.78,0A3.5,3.5,0,0,1,66.32,30.55Zm-14.43,0a4.19,4.19,0,0,1-3.78,0A3.5,3.5,0,0,1,51.89,30.55Zm-5.22-1.24a4.12,4.12,0,0,1,.89-5.76A4.18,4.18,0,0,1,50,22.76h0a4.11,4.11,0,0,1,3.32,6.55A5.27,5.27,0,0,0,46.67,29.31ZM74.28,71.38H64.43a1,1,0,0,0-.81.43l-1.16,1.73H37.54l-1.16-1.73a1,1,0,0,0-.81-.43H25.73v-30a1.19,1.19,0,0,1,1.19-1.19H73.08a1.2,1.2,0,0,1,1.2,1.19ZM37,75.48H63a1,1,0,0,0,.81-.43L65,73.32H79.33v1.91a1.93,1.93,0,0,1-1.92,1.92H22.59a1.92,1.92,0,0,1-1.91-1.92V73.32H35.05l1.16,1.73A1,1,0,0,0,37,75.48Z" transform="translate(-18.73 -20.91)"/><path id="Path_383" data-name="Path 383" class="cls-1" d="M55.78,59.9h10.1a1,1,0,0,0,0-1.95H55.78a1,1,0,1,0,0,1.95Z" transform="translate(-18.73 -20.91)"/><path id="Path_384" data-name="Path 384" class="cls-1" d="M65.87,54.79H57.93a1,1,0,0,0,0,1.94h7.94a1,1,0,0,0,0-1.94Z" transform="translate(-18.73 -20.91)"/><path id="Path_385" data-name="Path 385" class="cls-1" d="M65.87,51.66H57.93a1,1,0,0,0,0,1.94h7.94a1,1,0,1,0,0-1.94Z" transform="translate(-18.73 -20.91)"/><path id="Path_386" data-name="Path 386" class="cls-1" d="M35.58,23.82a1.95,1.95,0,1,0,1.94,1.95h0A2,2,0,0,0,35.58,23.82Z" transform="translate(-18.73 -20.91)"/><path id="Path_387" data-name="Path 387" class="cls-1" d="M50,23.82a1.95,1.95,0,1,0,2,1.95A2,2,0,0,0,50,23.82Z" transform="translate(-18.73 -20.91)"/><path id="Path_388" data-name="Path 388" class="cls-1" d="M64.43,23.82a1.95,1.95,0,1,0,1.94,1.95h0A2,2,0,0,0,64.43,23.82Z" transform="translate(-18.73 -20.91)"/></g></g></svg>
