<svg xmlns="http://www.w3.org/2000/svg" width="66.731" height="47.893" viewBox="0 0 66.731 47.893" aria-hidden="true">
    <g id="Group_356" data-name="Group 356" transform="translate(-5.624 -9.754)">
        <path id="Path_301" data-name="Path 301" d="M61.987,13.286H15.993a.95.95,0,0,0-.95.95V47.279a.95.95,0,0,0,.95.95H61.987a.95.95,0,0,0,.95-.95V14.236A.95.95,0,0,0,61.987,13.286ZM17.021,46.251V15.263H60.959V46.251Z" fill="#fff"/>
        <path id="Path_302" data-name="Path 302" d="M66.469,49.783V10.7a.951.951,0,0,0-.95-.95H12.461a.951.951,0,0,0-.95.95V49.783H6.575a.95.95,0,0,0-.95.95v2.919a3.915,3.915,0,0,0,3.933,3.995H68.268a4.142,4.142,0,0,0,2.549-.81,3.921,3.921,0,0,0,1.538-3.121V50.733a.95.95,0,0,0-.95-.95Zm-52.981,0V11.731h51V49.783h-17.3a.951.951,0,0,0-.95.95v.816H31.737v-.816a.951.951,0,0,0-.95-.95ZM48.22,52.577v-.816H70.377v1.955a1.95,1.95,0,0,1-1.954,1.954H9.557A1.944,1.944,0,0,1,7.6,53.716V51.761H29.76v.816a.95.95,0,0,0,.95.95H47.27A.95.95,0,0,0,48.22,52.577Z" fill="#fff"/>
        <path id="Path_303" data-name="Path 303" d="M28.021,25.132l3.5,1.752v5.5l.335.293a11.066,11.066,0,0,0,14.255,0l.338-.3v-5.5l3.5-1.752a.95.95,0,0,0,0-1.7L39.731,18.319a1.652,1.652,0,0,0-1.482,0L28.021,23.432A.951.951,0,0,0,28.021,25.132Zm19.214-.85L38.99,28.406l-8.246-4.124,8.246-4.124ZM33.5,27.873l4.745,2.373a1.658,1.658,0,0,0,1.482,0l4.746-2.373V31.43a8.982,8.982,0,0,1-10.973,0Z" fill="#fff"/>
        <rect id="Rectangle_79" data-name="Rectangle 79" width="21.993" height="1.977" rx="0.989" transform="translate(27.994 38.01)" fill="#fff"/>
        <rect id="Rectangle_80" data-name="Rectangle 80" width="17.284" height="1.978" rx="0.989" transform="translate(27.994 41.542)" fill="#fff"/>
    </g>
</svg>
