<svg xmlns="http://www.w3.org/2000/svg" width="57.331" height="54.84" viewBox="0 0 57.331 54.84" aria-hidden="true">
    <g id="Group_359" data-name="Group 359" transform="translate(75.28 -3.806)">
        <path id="Path_312" data-name="Path 312" d="M-19.43,49h-.427v-6.15a1.482,1.482,0,0,0-1.48-1.481H-38.03A8.627,8.627,0,0,0-46.6,49h-.025A8.629,8.629,0,0,0-55.2,41.371H-71.892a1.483,1.483,0,0,0-1.481,1.481V49H-73.8a1.482,1.482,0,0,0-1.48,1.48v2.862a1.482,1.482,0,0,0,1.48,1.48h22.471a4.788,4.788,0,0,0,2.053,3.02,4.789,4.789,0,0,0,2.651.8,4.909,4.909,0,0,0,.969-.1A4.808,4.808,0,0,0-41.9,54.824h22.47a1.482,1.482,0,0,0,1.481-1.48V50.482A1.482,1.482,0,0,0-19.43,49Zm-51.935,0V43.378H-55.2A6.661,6.661,0,0,1-48.647,49Zm26.783,0a6.661,6.661,0,0,1,6.55-5.624h16.168V49Zm24.625,2.007v1.808h-22.4A1.493,1.493,0,0,0-43.8,54.154a2.815,2.815,0,0,1-2.812,2.813,2.816,2.816,0,0,1-2.811-2.818,1.493,1.493,0,0,0-1.452-1.332h-22.4V51.009Z" fill="#fff"/>
        <path id="Path_313" data-name="Path 313" d="M-53.292,45.187H-68.553a1,1,0,0,0-1,1,1,1,0,0,0,1,1h15.261a1,1,0,0,0,1-1A1,1,0,0,0-53.292,45.187Z" fill="#fff"/>
        <path id="Path_314" data-name="Path 314" d="M-24.676,45.187H-39.938a1,1,0,0,0-1,1,1,1,0,0,0,1,1h15.262a1,1,0,0,0,1-1A1,1,0,0,0-24.676,45.187Z" fill="#fff"/>
        <path id="Path_315" data-name="Path 315" d="M-52.629,28.464h0a.425.425,0,0,1,.239.355V29.5a2.435,2.435,0,0,0,.474,1.43,2.441,2.441,0,0,0-.474,1.431v.954a2.438,2.438,0,0,0,.474,1.431,2.438,2.438,0,0,0-.474,1.43v.954a2.445,2.445,0,0,0,2.042,2.43,3.841,3.841,0,0,0,1.778,2.326,3.846,3.846,0,0,0,1.946.531,3.9,3.9,0,0,0,.985-.127,3.871,3.871,0,0,0,2.754-2.73,2.444,2.444,0,0,0,2.041-2.43v-.954a2.43,2.43,0,0,0-.473-1.43,2.431,2.431,0,0,0,.473-1.431v-.954a2.433,2.433,0,0,0-.473-1.431,2.428,2.428,0,0,0,.473-1.43v-.623a.445.445,0,0,1,.2-.392,12.465,12.465,0,0,0,4.937-16.9,12.447,12.447,0,0,0-4.8-4.858,12.376,12.376,0,0,0-6.635-1.6A12.562,12.562,0,0,0-55.484,8.9a12.562,12.562,0,0,0-3.58,8.44A12.423,12.423,0,0,0-52.629,28.464Zm7.576,11.1a1.867,1.867,0,0,1-1.562.854,1.864,1.864,0,0,1-1.561-.854ZM-46.615,7.132a10.374,10.374,0,0,1,7.376,3.077A10.374,10.374,0,0,1-36.2,17.6a10.443,10.443,0,0,1-5.414,9.125,2.445,2.445,0,0,0-1.236,2.151V29.5a.428.428,0,0,1-.427.427h-2.335V21.412l3.472-3.036a1,1,0,0,0,.153-1.411.994.994,0,0,0-.675-.368.986.986,0,0,0-.736.216c-.023.018-.045.038-.064.056l-3.153,2.709-3.152-2.755a1,1,0,0,0-1.42.029,1,1,0,0,0-.279.715,1,1,0,0,0,.308.7c.022.02.044.04.064.056l3.475,3.085v8.513h-2.335a.428.428,0,0,1-.427-.427V28.82a2.435,2.435,0,0,0-1.276-2.113,10.418,10.418,0,0,1-5.4-9.322,10.551,10.551,0,0,1,3-7.079,10.55,10.55,0,0,1,7-3.174ZM-50.38,36.174a.427.427,0,0,1,.427-.426h6.677a.427.427,0,0,1,.427.426v.954a.428.428,0,0,1-.427.428h-6.677a.428.428,0,0,1-.427-.428Zm7.1-2.434h-6.677a.428.428,0,0,1-.427-.427v-.954a.428.428,0,0,1,.427-.427h6.677a.428.428,0,0,1,.427.427v.954A.428.428,0,0,1-43.276,33.74Z" fill="#fff"/>
        <path id="Path_316" data-name="Path 316" d="M-58.1,7.49l.007.006a1,1,0,0,0,.565.174,1,1,0,0,0,.83-.436A1.008,1.008,0,0,0-56.7,6.093l-2.025-2.044a1.006,1.006,0,0,0-.73-.238.994.994,0,0,0-.685.347,1,1,0,0,0,0,1.309Z" fill="#fff"/>
        <path id="Path_317" data-name="Path 317" d="M-35.133,27.659l-.007-.006a1,1,0,0,0-1.4.262,1,1,0,0,0,.006,1.141l2.024,2.025a1,1,0,0,0,.651.241c.027,0,.053,0,.08,0a1,1,0,0,0,.685-.347,1,1,0,0,0,0-1.31Z" fill="#fff"/>
        <path id="Path_318" data-name="Path 318" d="M-35.822,7.809h.087l-.013-.024a1,1,0,0,0,.615-.3l2.025-2.025a1,1,0,0,0,.238-.73,1,1,0,0,0-.348-.685,1,1,0,0,0-1.309,0l-2,2.04a1.006,1.006,0,0,0-.007,1.42A1.013,1.013,0,0,0-35.822,7.809Z" fill="#fff"/>
        <path id="Path_319" data-name="Path 319" d="M-59.425,31.4h.02a.99.99,0,0,0,.693-.292l2.018-2.057a.992.992,0,0,0,.158-.752,1,1,0,0,0-.42-.644,1,1,0,0,0-1.14.007l-2.022,2.021a1.006,1.006,0,0,0-.007,1.42A1.008,1.008,0,0,0-59.425,31.4Z" fill="#fff"/>
        <path id="Path_320" data-name="Path 320" d="M-31.353,18.578h2.861a1,1,0,0,0,1-1,1,1,0,0,0-1-1h-2.861a1,1,0,0,0-1,1A1,1,0,0,0-31.353,18.578Z" fill="#fff"/>
        <path id="Path_321" data-name="Path 321" d="M-64.738,18.578h2.862a1,1,0,0,0,1-1,1,1,0,0,0-1-1h-2.862a1,1,0,0,0-1,1A1,1,0,0,0-64.738,18.578Z" fill="#fff"/>
    </g>
</svg>
