<svg xmlns="http://www.w3.org/2000/svg" width="66.732" height="47.893" viewBox="0 0 66.732 47.893" aria-hidden="true">
    <g id="Group_363" data-name="Group 363" transform="translate(-142.443 -12.053)">
        <g id="Group_361" data-name="Group 361">
            <path id="Path_323" data-name="Path 323" d="M203.288,52.082V13a.95.95,0,0,0-.95-.95H149.28a.95.95,0,0,0-.95.95V52.082h-4.937a.95.95,0,0,0-.95.95v2.826a4.152,4.152,0,0,0,.807,2.549,3.916,3.916,0,0,0,3.125,1.539h58.719a4.131,4.131,0,0,0,2.548-.813,3.923,3.923,0,0,0,1.533-3.118V53.032a.95.95,0,0,0-.95-.95Zm-52.98,0V14.03h51V52.082h-17.3a.95.95,0,0,0-.95.95v.816h-14.5v-.816a.95.95,0,0,0-.95-.95Zm34.731,2.794V54.06H207.2v1.955a1.95,1.95,0,0,1-1.954,1.954H146.375a1.946,1.946,0,0,1-1.954-1.954V54.06h22.157v.816a.95.95,0,0,0,.95.95h16.561A.95.95,0,0,0,185.039,54.876Z" fill="#fff"/>
            <path id="Path_324" data-name="Path 324" d="M198.806,15.585H152.811a.95.95,0,0,0-.95.95V49.578a.95.95,0,0,0,.95.95h45.995a.95.95,0,0,0,.95-.95V16.535A.95.95,0,0,0,198.806,15.585ZM153.84,48.55V17.562h43.937V48.55Z" fill="#fff"/>
        </g>
        <g id="Group_362" data-name="Group 362">
            <path id="Path_325" data-name="Path 325" d="M180.445,20.624H157.009A1.007,1.007,0,0,0,156,21.63V40.794a1.005,1.005,0,0,0,1.006,1.006h23.436a1.007,1.007,0,0,0,1-1.006V21.63A1.007,1.007,0,0,0,180.445,20.624Zm-1.006,2.012V39.789H158.015V22.636Z" fill="#fff"/>
            <path id="Path_326" data-name="Path 326" d="M180.445,43.561H166.126a1,1,0,1,0,0,2.01h14.319a1,1,0,0,0,0-2.01Z" fill="#fff"/>
            <path id="Path_327" data-name="Path 327" d="M161.232,43.561h-4.223a1,1,0,1,0,0,2.01h4.223a1,1,0,1,0,0-2.01Z" fill="#fff"/>
            <path id="Path_328" data-name="Path 328" d="M164.518,36.362a1,1,0,0,0,1,0l7.414-4.279a1.008,1.008,0,0,0,0-1.742l-7.414-4.279a1.005,1.005,0,0,0-1.507.871v8.558A1.013,1.013,0,0,0,164.518,36.362Zm1.508-2.612V28.674l4.4,2.538Z" fill="#fff"/>
            <path id="Path_329" data-name="Path 329" d="M163.673,42.747a1.007,1.007,0,0,0-1.005,1.006v1.812a1.006,1.006,0,1,0,2.011,0V43.753a1,1,0,0,0-1.006-1.006Z" fill="#fff"/>
            <path id="Path_330" data-name="Path 330" d="M187.562,21.062h-3.7a1,1,0,0,0-1,1v3.7a1,1,0,0,0,1,1h3.7a1,1,0,0,0,1-1v-3.7A1,1,0,0,0,187.562,21.062Zm-1,2v1.692h-1.693V23.066Z" fill="#fff"/>
            <path id="Path_331" data-name="Path 331" d="M187.562,28.361h-3.7a1,1,0,0,0-1,1v3.7a1,1,0,0,0,1,1h3.7a1,1,0,0,0,1-1v-3.7A1,1,0,0,0,187.562,28.361Zm-1,2.006v1.691h-1.693V30.367Z" fill="#fff"/>
            <path id="Path_332" data-name="Path 332" d="M187.562,35.662h-3.7a1,1,0,0,0-1,1V40.36a1,1,0,0,0,1,1h3.7a1,1,0,0,0,1-1V36.665A1,1,0,0,0,187.562,35.662Zm-1,2v1.691h-1.693V37.666Z" fill="#fff"/>
            <path id="Path_333" data-name="Path 333" d="M190.381,24.918h4.438a1.005,1.005,0,0,0,0-2.011h-4.438a1.005,1.005,0,0,0,0,2.011Z" fill="#fff"/>
            <path id="Path_334" data-name="Path 334" d="M194.819,30.208h-4.438a1,1,0,0,0,0,2.01h4.438a1,1,0,1,0,0-2.01Z" fill="#fff"/>
            <path id="Path_335" data-name="Path 335" d="M194.819,37.507h-4.438a1.006,1.006,0,0,0,0,2.011h4.438a1.006,1.006,0,0,0,0-2.011Z" fill="#fff"/>
        </g>
    </g>
</svg>
