<svg xmlns="http://www.w3.org/2000/svg" width="54.48" height="54.807" viewBox="0 0 54.48 54.807" aria-hidden="true">
    <g id="Group_365" data-name="Group 365" transform="translate(-473.094 -12.996)">
        <path id="Path_343" data-name="Path 343" d="M485.1,47.483l-.026-.015a1.047,1.047,0,0,0-1.359.377l-2.463,3.05c-.26-.242-.7-.655-.761-.712a1.041,1.041,0,0,0-1.314,1.616l1.461,1.332a1.134,1.134,0,0,0,.659.223,1.009,1.009,0,0,0,.8-.4l3.258-4.135a.854.854,0,0,0-.25-1.341Z" fill="#fff"/>
        <path id="Path_344" data-name="Path 344" d="M485.076,27.216a.98.98,0,0,0-1.365.374l-2.463,3.049c-.26-.242-.7-.654-.761-.71a1.044,1.044,0,0,0-1.464.162,1.1,1.1,0,0,0,.15,1.453l1.461,1.331a1.133,1.133,0,0,0,.659.223,1.006,1.006,0,0,0,.8-.4l3.232-4.1a.834.834,0,0,0,.237-.728A.9.9,0,0,0,485.076,27.216Z" fill="#fff"/>
        <path id="Path_345" data-name="Path 345" d="M487.534,29.429a1.006,1.006,0,0,0,.992.991h18.629a.959.959,0,0,0,.991-.991.928.928,0,0,0-.991-.991H488.526A1.006,1.006,0,0,0,487.534,29.429Z" fill="#fff"/>
        <path id="Path_346" data-name="Path 346" d="M501.9,32.439H488.526a1,1,0,0,0-.992.99,1.045,1.045,0,0,0,.992.992H501.9a.991.991,0,0,0,0-1.982Z" fill="#fff"/>
        <path id="Path_347" data-name="Path 347" d="M480.617,43.115a1.017,1.017,0,0,0,.663.266c.027,0,.054,0,.082,0a1.073,1.073,0,0,0,.726-.421l3.249-4.125a.937.937,0,0,0,.182-.782.85.85,0,0,0-.443-.58.945.945,0,0,0-1.365.373l-2.463,3.05c-.26-.242-.7-.655-.761-.711a1.1,1.1,0,0,0-.817-.24.944.944,0,0,0-.647.4,1.1,1.1,0,0,0,.15,1.453Z" fill="#fff"/>
        <path id="Path_348" data-name="Path 348" d="M527.189,27.243l-2.067-1.607,1.422-1.82a1.519,1.519,0,0,0,.3-1.175,1.409,1.409,0,0,0-.659-.9l-3.053-2.367a1.481,1.481,0,0,0-1.074-.348,1.5,1.5,0,0,0-1.021.5l-1.51,1.858a.952.952,0,0,0-1.057.4l-2.623,3.373a.985.985,0,0,0-.1,1.072l-2.218,2.858v-3.9a1,1,0,0,0-.32-.732l-11-11.129a1,1,0,0,0-.732-.321H474.084a1,1,0,0,0-.99.992V66.813a1,1,0,0,0,.99.99h38.572a1,1,0,0,0,.991-.99V40.245c0-.019-.009-.034-.01-.053l7.595-9.778a1.049,1.049,0,0,0,1.177-.336l1.979-2.5.747.582L518.9,36.228a1.073,1.073,0,0,0,.2,1.474.989.989,0,0,0,1.372-.249l6.887-8.829A.963.963,0,0,0,527.189,27.243Zm-24.67-3.056v-7.68l7.68,7.68ZM501.4,26.231h10.137V31.58c0,.015.009.027.009.042l-5.389,6.943H488.526a1.006,1.006,0,0,0-.992.991,1.044,1.044,0,0,0,.992.991H504.54L503.035,42.5H488.526a.991.991,0,1,0,0,1.982h12.892l-3.2,4.207h-9.7a1.006,1.006,0,0,0-.992.991,1.044,1.044,0,0,0,.992.99h8.153c-.481.661-1.164,1.6-1.406,1.958h-6.747a1,1,0,0,0-.992.99,1.045,1.045,0,0,0,.992.991h6.115l-1.329,4.465a1.031,1.031,0,0,0,.261,1.178.978.978,0,0,0,.581.2,1.32,1.32,0,0,0,.621-.185c6.027-3.578,6.084-3.635,6.131-3.685l10.76-13.853V65.823H475.074V15.041h25.339V25.178A1.013,1.013,0,0,0,501.4,26.231ZM496,57.289l.861-2.866a7.174,7.174,0,0,1,.89.634c.28.233.566.472.822.707Zm3.062-3.849a7.114,7.114,0,0,0-1.227-.835l19.493-25.091,2.307,1.77L500.079,54.37A6.272,6.272,0,0,0,499.059,53.44Zm23.7-27.031-1.333,1.743-3.309-2.58,1.333-1.743Zm1.687-3.378-1.017,1.308-2.247-1.766,1.017-1.308Z" fill="#fff"/>
    </g>
</svg>
