<svg xmlns="http://www.w3.org/2000/svg" width="49.897" height="57.233" viewBox="0 0 49.897 57.233" aria-hidden="true">
    <g id="Group_358" data-name="Group 358" transform="translate(153.52 -0.784)">
        <path id="Path_304" data-name="Path 304" d="M-126.1.784a22.083,22.083,0,0,0-9.583,2.159,22.51,22.51,0,0,0-13.028,20.384l-.029,3.391-4.231,8.053a3.865,3.865,0,0,0-.14,3.719,3.84,3.84,0,0,0,3.331,1.647h1v6.937a5.556,5.556,0,0,0,5.55,5.551h.205l4.958-.722V56.97a1.049,1.049,0,0,0,1.047,1.047h25.351a1.393,1.393,0,0,0,1.082-1.252V39.53l.076-.073a22.392,22.392,0,0,0,6.884-16.2A22.5,22.5,0,0,0-126.1.784Zm13.821,37.464a1.1,1.1,0,0,0-.332.774v16.7H-135.9V50.486a.86.86,0,0,0-.357-.741.942.942,0,0,0-.845-.241l-6.087.889a3.482,3.482,0,0,1-3.425-3.455V39.022a1.047,1.047,0,0,0-1.047-1.046h-2.047a1.928,1.928,0,0,1-1.565-.578,1.665,1.665,0,0,1,.186-1.7l4.365-8.321a1.767,1.767,0,0,0,.108-.5V23.327A20.586,20.586,0,0,1-134.8,4.812,20.118,20.118,0,0,1-126.1,2.877a20.473,20.473,0,0,1,20.449,20.45A20.4,20.4,0,0,1-112.276,38.248Z" fill="#fff"/>
        <g id="Group_357" data-name="Group 357">
            <path id="Path_305" data-name="Path 305" d="M-117.3,16.676a10.1,10.1,0,0,0-9.326-5.267,10.337,10.337,0,0,0-9.732,9.968,10.134,10.134,0,0,0,5.25,9.071l.01.006a.151.151,0,0,1,.087.118v.543a2.136,2.136,0,0,0,.34,1.145,2.134,2.134,0,0,0-.34,1.146v.764a2.137,2.137,0,0,0,.34,1.146,2.137,2.137,0,0,0-.34,1.146v.761a2.146,2.146,0,0,0,1.675,2.109,3.286,3.286,0,0,0,3.135,2.312,3.284,3.284,0,0,0,.828-.107,3.284,3.284,0,0,0,2.306-2.2,2.146,2.146,0,0,0,1.674-2.106v-.765a2.136,2.136,0,0,0-.34-1.145,2.136,2.136,0,0,0,.34-1.146V33.4a2.133,2.133,0,0,0-.34-1.145,2.136,2.136,0,0,0,.34-1.146v-.506a.176.176,0,0,1,.067-.145,10.086,10.086,0,0,0,4.869-6.059A10.087,10.087,0,0,0-117.3,16.676Zm-8.056,22.685a1.351,1.351,0,0,1-1.692,0Zm-3.677-2.9a.157.157,0,0,1,.157-.157h5.348a.157.157,0,0,1,.157.157v.764a.156.156,0,0,1-.157.156h-5.348a.157.157,0,0,1-.157-.156Zm0-2.292v-.764a.157.157,0,0,1,.157-.157h5.348a.157.157,0,0,1,.157.157v.764a.157.157,0,0,1-.157.157h-5.348A.158.158,0,0,1-129.031,34.17Zm5.662-3.552v.5a.157.157,0,0,1-.157.157h-1.685V24.723l2.712-2.372a.981.981,0,0,0,.363-.664.98.98,0,0,0-.213-.727.989.989,0,0,0-1.39-.149l-.056.048-2.4,2.065-2.4-2.094a.989.989,0,0,0-.705-.276.982.982,0,0,0-.693.3.992.992,0,0,0,.03,1.4c.02.019.041.037.055.048l2.72,2.416v6.549h-1.685a.157.157,0,0,1-.157-.157v-.545a2.133,2.133,0,0,0-1.117-1.852,8.157,8.157,0,0,1-4.23-7.3,8.334,8.334,0,0,1,7.833-8.032h.345a8.187,8.187,0,0,1,8.157,8.2,8.18,8.18,0,0,1-4.242,7.148A2.143,2.143,0,0,0-123.369,30.618Z" fill="#fff"/>
            <path id="Path_306" data-name="Path 306" d="M-135.4,13.487l.006,0a.8.8,0,0,0,.453.14.806.806,0,0,0,.665-.349.8.8,0,0,0-.005-.914l-1.622-1.637a.805.805,0,0,0-1.134.088.8.8,0,0,0,0,1.048Z" fill="#fff"/>
            <path id="Path_307" data-name="Path 307" d="M-117.007,29.641l0,0a.806.806,0,0,0-1.118.21.808.808,0,0,0,0,.913l1.622,1.622a.8.8,0,0,0,.522.193c.021,0,.042,0,.063,0a.8.8,0,0,0,.548-.279.8.8,0,0,0,0-1.048Z" fill="#fff"/>
            <path id="Path_308" data-name="Path 308" d="M-117.558,13.744h.069l-.01-.018a.8.8,0,0,0,.493-.238l1.621-1.622a.794.794,0,0,0,.191-.585.8.8,0,0,0-.279-.548.8.8,0,0,0-1.048,0l-1.6,1.635a.8.8,0,0,0-.238.568.8.8,0,0,0,.234.569A.8.8,0,0,0-117.558,13.744Z" fill="#fff"/>
            <path id="Path_309" data-name="Path 309" d="M-135.4,29.642l-1.62,1.619a.806.806,0,0,0,0,1.137.808.808,0,0,0,.56.238h.015a.811.811,0,0,0,.556-.234l1.617-1.648a.8.8,0,0,0-.21-1.117A.8.8,0,0,0-135.4,29.642Z" fill="#fff"/>
            <path id="Path_310" data-name="Path 310" d="M-111.687,20.761h-2.292a.8.8,0,0,0-.8.8.806.806,0,0,0,.8.805h2.292a.806.806,0,0,0,.8-.805A.8.8,0,0,0-111.687,20.761Z" fill="#fff"/>
            <path id="Path_311" data-name="Path 311" d="M-138.425,20.761h-2.292a.8.8,0,0,0-.8.8.8.8,0,0,0,.8.805h2.292a.8.8,0,0,0,.8-.805A.8.8,0,0,0-138.425,20.761Z" fill="#fff"/>
        </g>
    </g>
</svg>
