<svg xmlns="http://www.w3.org/2000/svg" width="57.333" height="57.414" viewBox="0 0 57.333 57.414" aria-hidden="true">
    <g id="Group_360" data-name="Group 360" transform="translate(-80.912 -4.293)">
        <path id="Path_322" data-name="Path 322" d="M105.57,61.707a24.749,24.749,0,0,0,20.344-38.965H127.4a.994.994,0,0,0,.7-.287l9.85-9.851a.99.99,0,0,0-.7-1.693h-5.633V5.279a.99.99,0,0,0-1.693-.693l-9.85,9.85a.99.99,0,0,0-.287.7v1.5A24.749,24.749,0,1,0,105.57,61.707Zm16.2-46.162,7.87-7.871V11.9a.99.99,0,0,0,.99.99h4.227l-7.87,7.871h-5.217Zm-16.2-1.416a22.765,22.765,0,0,1,14.186,4.95v2.237l-4.286,4.307a15.107,15.107,0,1,0,1.435,1.435l4.277-4.277h2.207a22.771,22.771,0,1,1-17.819-8.612ZM108.8,36.9a3.227,3.227,0,1,1-3.257-3.2h.03a3.182,3.182,0,0,1,1.465.366l-2.158,2.158a.99.99,0,1,0,1.288,1.5,1,1,0,0,0,.108-.108l2.158-2.158a3.181,3.181,0,0,1,.4,1.495Zm-.257-4.286a5.217,5.217,0,1,0,1.376,1.376l5.554-5.564a13.112,13.112,0,1,1-1.357-1.366Z" fill="#fff"/>
    </g>
</svg>
