<svg id="storage" xmlns="http://www.w3.org/2000/svg" viewBox="0 0 61.85 51.16" aria-hidden="true"><defs><style>.cls-1{fill:#fff;}</style></defs><g id="Component_14_1" data-name="Component 14 1"><g id="Group_392" data-name="Group 392"><path id="Path_389" data-name="Path 389" class="cls-1" d="M75.66,27.59H46.44a1,1,0,1,0,0,2H75.66a1,1,0,0,0,1-1,1,1,0,0,0-1-1Z" transform="translate(-19.07 -24.42)"/><path id="Path_390" data-name="Path 390" class="cls-1" d="M76.38,24.42H23.63A4.57,4.57,0,0,0,19.07,29V71a4.57,4.57,0,0,0,4.56,4.55H76.38A4.55,4.55,0,0,0,80.92,71V29A4.55,4.55,0,0,0,76.38,24.42ZM79,71a2.57,2.57,0,0,1-2.58,2.57H23.63A2.58,2.58,0,0,1,21.05,71V37.09H36.46a5.32,5.32,0,0,0,5.17-4.28H79Zm0-40.19H40.73a1,1,0,0,0-1,1,3.3,3.3,0,0,1-3.29,3.29H21.05V29a2.57,2.57,0,0,1,2.58-2.57H76.37A2.57,2.57,0,0,1,79,29Z" transform="translate(-19.07 -24.42)"/><path id="Path_391" data-name="Path 391" class="cls-1" d="M35.74,29.88a1.95,1.95,0,1,0,1.95,1.94A1.94,1.94,0,0,0,35.74,29.88Z" transform="translate(-19.07 -24.42)"/><path id="Path_392" data-name="Path 392" class="cls-1" d="M30,29.88A1.95,1.95,0,1,0,32,31.82,1.94,1.94,0,0,0,30,29.88Z" transform="translate(-19.07 -24.42)"/><path id="Path_393" data-name="Path 393" class="cls-1" d="M24.34,29.88a1.95,1.95,0,1,0,1.94,1.94A2,2,0,0,0,24.34,29.88Z" transform="translate(-19.07 -24.42)"/><path id="Path_394" data-name="Path 394" class="cls-1" d="M50,44.63a4.58,4.58,0,0,0,0-9.15,4.64,4.64,0,0,0-4.57,4.58A4.58,4.58,0,0,0,50,44.63Zm0-7.15a2.58,2.58,0,1,1-2.57,2.58h0A2.61,2.61,0,0,1,50,37.48Z" transform="translate(-19.07 -24.42)"/><path id="Path_395" data-name="Path 395" class="cls-1" d="M40.47,43.35a2.93,2.93,0,0,0-3.57,1.8,2.8,2.8,0,0,0,.18,2.16,3,3,0,0,0,1.77,1.48L46.69,51v.17a39.05,39.05,0,0,1-.42,4.71c-.61,2.8-4,10.71-4.08,10.77a2.84,2.84,0,0,0,1.32,3.79l0,0a2.78,2.78,0,0,0,3.72-1.26l.06-.11L50,63.38l2.75,5.73a2.71,2.71,0,0,0,2.6,1.74,2.58,2.58,0,0,0,1.21-.3,2.87,2.87,0,0,0,1.36-3.78c0-.08-3.48-8-4.1-10.82a38.89,38.89,0,0,1-.41-4.69v-.14l7.75-2.33a2.9,2.9,0,0,0,2-3.52,2.82,2.82,0,0,0-1.37-1.71,3,3,0,0,0-2.2-.26c-2,.64-7.63,2.31-9.59,2.31S42.48,44,40.47,43.35Zm19.67,1.87a.93.93,0,0,1,.67.1.75.75,0,0,1,.4.47.91.91,0,0,1-.6,1.08l-7.88,2.37a1.87,1.87,0,0,0-1.32,2v.16a35.64,35.64,0,0,0,.46,5c.65,3,4.06,10.83,4.22,11.19a.89.89,0,0,1-.44,1.17.85.85,0,0,1-.32.09.77.77,0,0,1-.75-.52L50,58.71,45.5,68.28h0a.78.78,0,0,1-.75.5.67.67,0,0,1-.34-.1A.85.85,0,0,1,44,67.57s0,0,0-.06c.14-.33,3.55-8.17,4.2-11.14a35.78,35.78,0,0,0,.46-5.06v-.23a2,2,0,0,0-1.36-1.91l-7.9-2.3a.9.9,0,0,1-.56-.47.75.75,0,0,1-.06-.62.94.94,0,0,1,1.11-.51c.3.1,7.39,2.35,10.07,2.35s9.9-2.32,10.16-2.4Z" transform="translate(-19.07 -24.42)"/></g></g></svg>
