<svg xmlns="http://www.w3.org/2000/svg" viewBox="0 0 52.41 52.32" aria-hidden="true"><defs><style>.cls-1{fill:#fff;}</style></defs><g id="Layer_2" data-name="Layer 2"><g id="storage"><g id="Component_16_1" data-name="Component 16 1"><g id="Group_394" data-name="Group 394"><path id="Path_418" data-name="Path 418" class="cls-1" d="M22.91,40.58H2.62A2.62,2.62,0,0,0,0,43.2v6.5a2.63,2.63,0,0,0,2.62,2.62H22.91a2.63,2.63,0,0,0,2.62-2.62V43.2A2.63,2.63,0,0,0,22.91,40.58Zm.63,9.12a.63.63,0,0,1-.63.62H2.62A.63.63,0,0,1,2,49.7V43.2a.63.63,0,0,1,.63-.62H22.91a.63.63,0,0,1,.63.62h0Z"/><path id="Path_419" data-name="Path 419" class="cls-1" d="M49.69,40.58H29.4a2.64,2.64,0,0,0-2.62,2.62v6.5a2.64,2.64,0,0,0,2.62,2.62H49.69a2.63,2.63,0,0,0,2.62-2.62V43.2A2.62,2.62,0,0,0,49.69,40.58Zm.63,9.12a.63.63,0,0,1-.63.62H29.4a.62.62,0,0,1-.62-.62V43.2a.62.62,0,0,1,.62-.62H49.69a.63.63,0,0,1,.63.62h0Z"/><path id="Path_420" data-name="Path 420" class="cls-1" d="M13.39,30.22v6.49A2.62,2.62,0,0,0,16,39.33H36.3a2.62,2.62,0,0,0,2.62-2.62V30.22A2.62,2.62,0,0,0,36.3,27.6H16A2.62,2.62,0,0,0,13.39,30.22Zm23.54,6.49a.63.63,0,0,1-.63.63H16a.64.64,0,0,1-.63-.63V30.22a.64.64,0,0,1,.63-.63H36.3a.63.63,0,0,1,.63.63Z"/><path id="Path_421" data-name="Path 421" class="cls-1" d="M49.69,14.61H29.4a2.63,2.63,0,0,0-2.62,2.62v6.49a2.63,2.63,0,0,0,2.62,2.62H49.69a2.62,2.62,0,0,0,2.62-2.62V17.23A2.62,2.62,0,0,0,49.69,14.61Zm.63,9.11a.63.63,0,0,1-.63.63H29.4a.63.63,0,0,1-.62-.63V17.23a.63.63,0,0,1,.62-.63H49.69a.63.63,0,0,1,.63.63Z"/><path id="Path_422" data-name="Path 422" class="cls-1" d="M42.85,29.59h8.47a1,1,0,0,0,.17-2,.48.48,0,0,0-.17,0H42.83a2.65,2.65,0,0,0-2.65,2.62v6.5a2.66,2.66,0,0,0,2.65,2.62h8.49a1,1,0,0,0,.18-2H42.83a.66.66,0,0,1-.66-.62V30.23a.66.66,0,0,1,.67-.64Z"/><path id="Path_423" data-name="Path 423" class="cls-1" d="M2.62,26.34H22.91a2.62,2.62,0,0,0,2.62-2.62V17.23a2.61,2.61,0,0,0-.91-2,1,1,0,0,0,.07-.65L23.42,9a.94.94,0,0,0-.5-.65l-5.54-3a1.1,1.1,0,0,0-.06-.67L15.54.63a1.09,1.09,0,0,0-1-.63.87.87,0,0,0-.45.09L3.89,4.56l-2-4a1.06,1.06,0,0,0-.58-.5A1,1,0,0,0,.55.11,1,1,0,0,0,.11,1.44l2,3.93-.6.26A1.07,1.07,0,0,0,.88,7l1.79,4.1a1.1,1.1,0,0,0,1,.64h.07L4.06,13a1,1,0,0,0,1,.8H17.52l.4.78H2.62A2.63,2.63,0,0,0,0,17.23v6.5A2.62,2.62,0,0,0,2.62,26.34ZM15.13,4.66l-11,4.8-1-2.38.54-.22A.83.83,0,0,0,4,6.72L14.09,2.27Zm.4,2,6,3.26,1.1,4.79L20.14,20a.45.45,0,0,1-.54.24.49.49,0,0,1-.31-.57l1-4.68a1,1,0,0,0-.17-.77l-1.22-2a1,1,0,0,0-.8-.41H5.87L5.64,11Zm1.8,12.64A2.48,2.48,0,0,0,19,22.16a2.36,2.36,0,0,0,.75.12h0a2.47,2.47,0,0,0,2.2-1.4l1.62-3.38v6.22a.62.62,0,0,1-.62.62H2.62A.63.63,0,0,1,2,23.72v-6.5a.63.63,0,0,1,.63-.62H17.88Z"/></g></g></g></g></svg>
