<svg id="storage" xmlns="http://www.w3.org/2000/svg" viewBox="0 0 56.9 65.03" aria-hidden="true"><defs><style>.cls-1{fill:#fff;}</style></defs><path class="cls-1" d="M69.3,45.92a19.31,19.31,0,1,0-28.45,17v2.38a3.54,3.54,0,0,0-3,4,3.58,3.58,0,0,0,1,2,3.55,3.55,0,0,0,2.48,6.1H44a6.09,6.09,0,0,0,12,0h2.64a3.56,3.56,0,0,0,2.48-6.1,3.54,3.54,0,0,0-2-6V62.9A19.17,19.17,0,0,0,69.3,45.92ZM45.93,65.23h-3v-3a1,1,0,0,0-.57-.91,17.26,17.26,0,1,1,15.35,0,1,1,0,0,0-.56.91v2.94h-3m-2,0H48m2,15.24a4.1,4.1,0,0,1-3.94-3h7.87A4.08,4.08,0,0,1,50,80.47Zm10.16-6.61a1.53,1.53,0,0,1-1.52,1.53H41.36a1.53,1.53,0,0,1,0-3H58.64a1.52,1.52,0,0,1,1.52,1.52Zm0-5.08a1.53,1.53,0,0,1-1.52,1.53H41.36a1.53,1.53,0,0,1,0-3H58.64A1.52,1.52,0,0,1,60.16,68.78ZM49,23.56V18.48a1,1,0,0,1,2,0v5.08a1,1,0,1,1-2,0ZM35.4,22.67a1,1,0,0,1,1.76-1l2.54,4.4a1,1,0,0,1-1.75,1h0Zm-10,9a1,1,0,0,1,1.39-.37l4.4,2.54a1,1,0,0,1-1,1.77h0l-4.4-2.54A1,1,0,0,1,25.36,31.69Zm2.28,15.25H22.56a1,1,0,0,1,0-2h5.08a1,1,0,0,1,0,2Zm3.88,9.65A1,1,0,0,1,31.15,58l-4.4,2.54a1,1,0,0,1-1-1.76h0l4.4-2.54A1,1,0,0,1,31.52,56.59ZM60.3,26.05l2.54-4.4a1,1,0,0,1,1.76,1l-2.54,4.4a1,1,0,0,1-1.77-1Zm8.18,9.2a1,1,0,0,1,.37-1.39l4.4-2.54a1,1,0,0,1,1,1.76l-4.4,2.54A1,1,0,0,1,68.48,35.25Zm10,10.67a1,1,0,0,1-1,1H72.35a1,1,0,0,1,0-2h5.08A1,1,0,0,1,78.45,45.92ZM74.64,60.14a1,1,0,0,1-1.39.38L68.85,58a1,1,0,0,1,1-1.77h0l4.4,2.54A1,1,0,0,1,74.64,60.14Z" transform="translate(-21.55 -17.47)"/><path class="cls-1" d="M62.81,45.89c0-.14,0-.28,0-.43v-.12c0-.11,0-.23-.06-.33v-.09c0-.13-.06-.26-.1-.39l0-.13a3.21,3.21,0,0,0-.12-.31l0-.09c-.05-.12-.11-.23-.17-.35l0-.09A2,2,0,0,0,62,43.3L62,43.2a4,4,0,0,0-.26-.35c-.08-.1-.18-.2-.32-.35a4.8,4.8,0,0,0-.72-.58h0A4.43,4.43,0,0,0,61,40.33a4.52,4.52,0,0,0-4.07-4.47A4.48,4.48,0,0,0,50,33.41a4.49,4.49,0,0,0-6.89,2.45,4.52,4.52,0,0,0-4.06,4.47,4.42,4.42,0,0,0,.28,1.58l0,0a5.45,5.45,0,0,0-.72.6c-.09.09-.19.2-.28.31L38,43.2l-.05.08c-.06.09-.11.18-.18.3l0,.07a4,4,0,0,0-.17.36l0,.11c0,.09-.07.18-.11.3l0,.11c0,.13-.07.25-.1.39l0,.08c0,.11,0,.23-.05.35v.11a3.32,3.32,0,0,0,0,.43,4.77,4.77,0,0,0,1.91,3.82,4.51,4.51,0,0,0,3.6,6.11A4.46,4.46,0,0,0,47,59.26a5.17,5.17,0,0,0,3-.87,5.17,5.17,0,0,0,3,.87,4.46,4.46,0,0,0,4.33-3.44,4.47,4.47,0,0,0,3.91-4.45,4.66,4.66,0,0,0-.31-1.66A4.77,4.77,0,0,0,62.81,45.89Zm-4.84,3,.74,1a2.46,2.46,0,0,1-1.43,3.83,4.57,4.57,0,0,0-1.22-2.13,4.46,4.46,0,0,0,.5-1.39,1,1,0,1,0-2-.36,2.43,2.43,0,0,1-1.87,1.93,1,1,0,0,0-.64.44,1,1,0,0,0-.15.76,1,1,0,0,0,1.21.79,4.5,4.5,0,0,0,1.56-.67,2.4,2.4,0,0,1-1.7,4.1A3.13,3.13,0,0,1,51,56.62V47.88c.36,0,.72,0,1,0a2.86,2.86,0,0,0,.44.91,1,1,0,0,0,.67.4,1,1,0,0,0,.75-.17,1,1,0,0,0,.4-.66,1,1,0,0,0-.18-.76,3.25,3.25,0,0,1-.27-2,1.05,1.05,0,0,0,0-.78,1,1,0,0,0-1.88,0,3,3,0,0,0-.19,1H51V35.18a2.51,2.51,0,0,1,1.55-.55,2.47,2.47,0,0,1,2.27,1.52A4.57,4.57,0,0,0,53,37.44a1,1,0,0,0,.86,1.66,1,1,0,0,0,.7-.35,2.44,2.44,0,0,1,1.58-.85,1.56,1.56,0,0,1,.3,0,2.45,2.45,0,0,1,2.45,2.45,2.41,2.41,0,0,1-.15.85,4.73,4.73,0,0,0-2.6.33,4.63,4.63,0,0,0-1.33-.76.94.94,0,0,0-.77,0,1,1,0,0,0-.54.56,1,1,0,0,0,0,.78,1,1,0,0,0,.57.53,2.72,2.72,0,0,1,1.75,2.23,1,1,0,0,0,1,.9H57a1,1,0,0,0,.68-.38,1,1,0,0,0,.21-.75,4.68,4.68,0,0,0-.4-1.43,2.69,2.69,0,0,1,1.64.17,3.19,3.19,0,0,1,.47.26l.2.16A1.3,1.3,0,0,1,60,44a2.93,2.93,0,0,1,.35.44l.09.14,0,.08a.61.61,0,0,1,.07.14l0,.1a1.46,1.46,0,0,0,.07.19h0l0,.09a.57.57,0,0,1,0,.14l0,.09a1,1,0,0,1,0,.17v.08a2.11,2.11,0,0,1,0,.25,2.73,2.73,0,0,1-1.65,2.51ZM44.62,54.82a2,2,0,0,1,.67-1.53A2.61,2.61,0,0,1,47,52.68a1,1,0,0,0,0-2,4.4,4.4,0,0,0-.73.06,4.26,4.26,0,0,0-.44-1.89,1,1,0,0,0-.58-.51,1,1,0,0,0-.78,0A1,1,0,0,0,44,49.69a2.49,2.49,0,0,1,.07,2l-.17.14a3.88,3.88,0,0,0-1.2,2,2.46,2.46,0,0,1-1.44-3.83l.74-1-1.16-.5a2.76,2.76,0,0,1-1.65-2.52,2.29,2.29,0,0,1,0-.25v-.08a.78.78,0,0,1,0-.16l0-.1s0-.11,0-.16l0-.08.08-.21,0-.08a.61.61,0,0,1,.07-.14l0-.08.13-.2a2.55,2.55,0,0,1,.34-.41,1.81,1.81,0,0,1,.19-.17l.2-.15a3,3,0,0,1,.51-.27,2.74,2.74,0,0,1,1-.19,2.43,2.43,0,0,1,1.85.81,4.85,4.85,0,0,0-1.19,1.2,1,1,0,0,0-.17.76,1,1,0,0,0,.42.65,1,1,0,0,0,1.41-.25,2.72,2.72,0,0,1,2.6-1.14H47a1,1,0,0,0,1-.89,1.06,1.06,0,0,0-.2-.75,1,1,0,0,0-.68-.39,4.84,4.84,0,0,0-1.37,0,4.46,4.46,0,0,0-4.53-2,2.41,2.41,0,0,1-.15-.85,2.45,2.45,0,0,1,2.45-2.45,1.51,1.51,0,0,1,.3,0l1.08.13L45,37a2.46,2.46,0,0,1,4-1.77v4a1.9,1.9,0,0,1-.93,0,1.75,1.75,0,0,1-1.31-.91,1,1,0,0,0-1.33-.53,1,1,0,0,0-.55.56,1,1,0,0,0,0,.78,3.73,3.73,0,0,0,2.8,2.1,4.07,4.07,0,0,0,1.3,0v15.4a3.15,3.15,0,0,1-1.95.61,2.42,2.42,0,0,1-2.41-2.36Z" transform="translate(-21.55 -17.47)"/></svg>
